<?xml version="1.0" encoding="UTF-8"?>
<svg version="1.1" xmlns="http://www.w3.org/2000/svg" width="512" height="512">
<path d="M0 0 C2.171875 1.4765625 2.171875 1.4765625 4.25 3.15234375 C6.53277642 4.99124698 8.83125156 6.2959374 11.421875 7.6640625 C16.03635747 10.13242393 20.61295068 12.6575801 25.171875 15.2265625 C25.85580322 15.61175049 26.53973145 15.99693848 27.24438477 16.39379883 C32.78312882 19.51786714 38.30371498 22.67292222 43.8203125 25.8359375 C46.23400541 27.21557478 48.65629274 28.57834702 51.0859375 29.9296875 C59.58482983 34.66108501 67.94856855 39.58145523 76.27441406 44.61132812 C81.36668736 47.6797239 86.49196699 50.63837445 91.73828125 53.4375 C94.91217906 55.14979658 98.04352828 56.93295426 101.171875 58.7265625 C101.76436035 59.06606934 102.3568457 59.40557617 102.96728516 59.75537109 C105.88942773 61.43138731 108.80981725 63.11044935 111.73046875 64.7890625 C116.77758772 67.68313303 121.82643475 70.56621284 126.92578125 73.3671875 C140.8423079 81.01432391 140.8423079 81.01432391 147.3203125 85.50390625 C150.50251878 87.60708856 153.85738108 89.36210556 157.21875 91.16015625 C163.6532125 94.62548245 169.99874575 98.25303182 176.359375 101.8515625 C176.96716797 102.19477539 177.57496094 102.53798828 178.20117188 102.89160156 C181.66720832 104.85058238 185.11865959 106.83309399 188.56347656 108.82910156 C190.46827027 109.91355997 192.39257324 110.9569403 194.3203125 112 C195.64618939 112.74155124 196.97171874 113.48372426 198.296875 114.2265625 C199.20095093 114.69835937 199.20095093 114.69835937 200.12329102 115.1796875 C205.88166651 118.47064334 209.81696918 122.69952553 212.359375 128.8515625 C213.72935821 136.78782635 213.28532981 145.0033944 213.2175293 153.02441406 C213.22210639 155.49888822 213.22970741 157.97335836 213.24009705 160.44781494 C213.25718096 166.45530255 213.24186771 172.46190287 213.2111335 178.46927002 C213.17663194 185.46978173 213.17852927 192.47014503 213.18161199 199.47072384 C213.18579635 211.96141604 213.15588277 224.45179505 213.10717773 236.94238281 C213.05996348 249.05573782 213.03875465 261.16878008 213.0456543 273.28222656 C213.05431971 288.59525807 213.04010398 303.90809869 213.00690192 319.22109623 C212.99699883 324.09856062 212.99525677 328.97598929 212.99625206 333.85346222 C212.99708908 340.41666869 212.97582873 346.97956244 212.93985939 353.54268646 C212.92976853 355.95254136 212.92646632 358.36243554 212.93040466 360.77230835 C212.93460347 364.05874114 212.91423421 367.34412645 212.88749695 370.63043213 C212.89781174 372.06476322 212.89781174 372.06476322 212.90833491 373.52807069 C212.82868581 379.25863438 212.14362991 382.46871305 208.359375 386.8515625 C206.1328125 388.1015625 206.1328125 388.1015625 203.734375 388.8515625 C198.11809263 390.84443689 193.38759288 393.68800862 188.359375 396.8515625 C177.95175814 403.20039497 167.35732785 409.23465954 156.79980469 415.32910156 C154.29843932 416.77341664 151.79764764 418.21872146 149.296875 419.6640625 C148.54865479 420.09549561 147.80043457 420.52692871 147.02954102 420.97143555 C142.31515133 423.69631417 137.63892502 426.47927391 132.97338867 429.28686523 C128.35238025 432.05291016 123.69965898 434.76441771 119.046875 437.4765625 C118.01159668 438.08048828 116.97631836 438.68441406 115.90966797 439.30664062 C108.12771448 443.8388959 100.32026785 448.32498607 92.48706055 452.76806641 C87.59989092 455.54582728 82.76338397 458.39552292 77.94921875 461.29785156 C73.33847854 464.06394797 68.69206218 466.76884595 64.046875 469.4765625 C63.01159668 470.08048828 61.97631836 470.68441406 60.90966797 471.30664062 C53.12771448 475.8388959 45.32026785 480.32498607 37.48706055 484.76806641 C32.62677583 487.53054648 27.81606079 490.36325212 23.02832031 493.24951172 C18.01503545 496.25876668 12.96825606 499.21076503 7.921875 502.1640625 C6.84744141 502.79634766 5.77300781 503.42863281 4.66601562 504.08007812 C3.63798828 504.68142578 2.60996094 505.28277344 1.55078125 505.90234375 C0.62467041 506.44544189 -0.30144043 506.98854004 -1.25561523 507.5480957 C-6.03523258 510.16027474 -10.32938985 510.54431611 -15.67578125 509.42578125 C-22.60644118 507.37551343 -28.49868412 503.56984533 -34.640625 499.8515625 C-36.6986863 498.65638628 -38.76145624 497.46929245 -40.828125 496.2890625 C-41.65957031 495.81315674 -41.65957031 495.81315674 -42.5078125 495.32763672 C-46.55796321 493.01683453 -50.62764837 490.74238715 -54.703125 488.4765625 C-55.79214111 487.87013916 -56.88115723 487.26371582 -58.00317383 486.63891602 C-60.16543392 485.4359316 -62.32925342 484.23574436 -64.49487305 483.03881836 C-70.51319098 479.68950598 -76.3783405 476.18774419 -82.1484375 472.42578125 C-85.58044369 470.25791527 -89.13379685 468.35273961 -92.7109375 466.4375 C-96.54457896 464.36222209 -100.32052849 462.19115698 -104.10131836 460.02148438 C-108.56098694 457.46450339 -113.03401288 454.93237453 -117.515625 452.4140625 C-118.17788086 452.0413623 -118.84013672 451.66866211 -119.52246094 451.28466797 C-122.97420598 449.34358273 -126.43072675 447.41167614 -129.89453125 445.4921875 C-136.27423162 441.94717036 -142.51325269 438.37457616 -148.53125 434.234375 C-151.74324258 432.12873542 -155.11528884 430.35350559 -158.5 428.54296875 C-162.17568145 426.56340399 -165.81608961 424.52602371 -169.453125 422.4765625 C-170.1435791 422.08774902 -170.8340332 421.69893555 -171.54541016 421.29833984 C-176.8675742 418.29676382 -182.16886087 415.2594698 -187.46875 412.21875 C-190.86209772 410.28388591 -194.27340802 408.38237512 -197.6875 406.484375 C-199.32440796 405.5730481 -199.32440796 405.5730481 -200.99438477 404.64331055 C-203.159959 403.43880404 -205.32703267 402.23698798 -207.49584961 401.03833008 C-232.35542518 387.20304353 -232.35542518 387.20304353 -235.640625 378.8515625 C-236.0684283 375.4711324 -236.04990104 372.12126964 -236.02830505 368.71740723 C-236.03369059 367.69970953 -236.03907613 366.68201184 -236.04462487 365.63347483 C-236.05892709 362.22492776 -236.05179498 358.8167678 -236.04467773 355.40820312 C-236.05038005 352.96387927 -236.05734377 350.51955807 -236.06547546 348.07524109 C-236.08157075 342.12631456 -236.08350472 336.17754 -236.07826256 330.22860658 C-236.07421905 325.39326365 -236.07566655 320.55795192 -236.08101082 315.72261047 C-236.08175924 315.0340908 -236.08250766 314.34557113 -236.08327876 313.63618723 C-236.08481026 312.23741781 -236.0863486 310.8386484 -236.08789373 309.439879 C-236.10161652 296.32747719 -236.09618238 283.21513507 -236.08470852 270.10273463 C-236.07477366 258.1084703 -236.08772151 246.11436018 -236.11164271 234.12011963 C-236.13602757 221.80048945 -236.14564327 209.48093112 -236.13898998 197.16127729 C-236.13549673 190.24625125 -236.13773687 183.33134385 -236.15524101 176.41633606 C-236.17149259 169.91561385 -236.16679099 163.41513865 -236.14793587 156.91440773 C-236.14424105 154.52711355 -236.14738429 152.13979765 -236.15782166 149.75252342 C-236.17097142 146.49657866 -236.15953654 143.24161971 -236.14183044 139.98571777 C-236.15143545 139.03844141 -236.16104046 138.09116506 -236.17093652 137.11518335 C-236.10818482 131.51660068 -235.38271796 128.29339917 -231.640625 123.8515625 C-226.04009364 118.5343265 -219.29116391 114.69140551 -212.640625 110.8515625 C-211.27392262 110.04565468 -209.90810654 109.23824276 -208.54296875 108.4296875 C-207.05477289 107.5493348 -205.56649119 106.6691272 -204.078125 105.7890625 C-203.38203125 105.37744873 -202.6859375 104.96583496 -201.96875 104.54174805 C-198.45762227 102.47533739 -194.93092275 100.44785313 -191.36328125 98.48046875 C-185.73186821 95.36889912 -180.19018227 92.10619007 -174.640625 88.8515625 C-163.17147008 82.12529119 -163.17147008 82.12529119 -157.7890625 79.16015625 C-154.20886702 77.18629341 -150.72776363 75.09013678 -147.265625 72.9140625 C-142.57255893 70.00651927 -137.83711604 67.2785987 -132.97265625 64.671875 C-125.61755307 60.65372953 -118.37413755 56.43248806 -111.10400391 52.26318359 C-109.0173762 51.067457 -106.92936171 49.87425922 -104.83984375 48.68359375 C-97.43010359 44.46065135 -90.04574167 40.19536805 -82.66748047 35.91772461 C-76.890432 32.57009719 -71.09737855 29.25214163 -65.296875 25.9453125 C-60.07982886 22.96414328 -54.88552669 19.94353445 -49.68774414 16.92895508 C-46.02018253 14.80321341 -42.35077344 12.68127672 -38.66796875 10.58203125 C-38.06355957 10.23720703 -37.45915039 9.89238281 -36.83642578 9.53710938 C-35.12538857 8.56589025 -33.40846935 7.60505674 -31.69140625 6.64453125 C-28.6713742 4.93475649 -28.6713742 4.93475649 -26.12109375 3.02734375 C-18.666072 -2.2764777 -8.56628503 -3.72557366 0 0 Z " fill="#000000" transform="translate(267.640625,2.1484375)"/>
<path d="M0 0 C4.25762918 1.60665252 6.58742836 3.17118343 9 7 C9.50607163 9.23987323 9.50607163 9.23987323 9.67746067 11.64866352 C9.77392279 12.97172912 9.77392279 12.97172912 9.87233365 14.32152331 C10.06787732 18.42408563 10.1548174 22.51433607 10.16062927 26.62138367 C10.168261 27.99273986 10.168261 27.99273986 10.17604691 29.39180022 C10.19162418 32.42615651 10.20025672 35.46048926 10.20874023 38.49487305 C10.2182898 40.68200832 10.22818143 42.86914211 10.23838806 45.05627441 C10.26961694 52.20807128 10.29000802 59.35987928 10.30859375 66.51171875 C10.31189107 67.73010697 10.31518839 68.94849518 10.31858563 70.20380425 C10.34933543 81.69765791 10.37603091 93.19151434 10.39300442 104.68539715 C10.4129602 118.03887032 10.44425826 131.39202533 10.50756836 144.74536133 C10.56271676 156.41483229 10.59699542 168.08413255 10.6052013 179.75373489 C10.61015932 185.92494996 10.62525839 192.09575373 10.6649456 198.26685143 C10.70175643 204.06597113 10.71023956 209.8644435 10.69693947 215.66365814 C10.69699349 217.79094086 10.70731917 219.91825196 10.7286911 222.04542732 C10.75632318 224.95092432 10.7468865 227.85405133 10.72825623 230.75956726 C10.74505115 231.60003764 10.76184608 232.44050803 10.77914995 233.30644721 C10.69038782 238.84970492 9.30142559 241.67671934 5.48220974 245.69595271 C2.54687109 248.27846199 -0.06305293 248.28056064 -3.90625 248.2109375 C-8.52682309 247.745432 -11.23250288 245.92928307 -14.13943863 242.40957451 C-16.35564334 238.34826526 -16.56425369 235.07765394 -16.51898193 230.57180786 C-16.53023381 229.32067634 -16.53023381 229.32067634 -16.541713 228.04426944 C-16.56196717 225.25728564 -16.55389202 222.47111715 -16.54589844 219.68408203 C-16.55463468 217.68321428 -16.56512064 215.68235351 -16.57722473 213.6815033 C-16.60509892 208.2542902 -16.60848909 202.82730491 -16.60750484 197.40003061 C-16.6106327 191.72650448 -16.6362483 186.05308114 -16.65948486 180.37960815 C-16.70005803 169.63814646 -16.72038871 158.89674549 -16.73345876 148.15521896 C-16.7493243 135.9255119 -16.7877381 123.69590825 -16.82805204 111.46626115 C-16.91046906 86.31087547 -16.96454995 61.15549261 -17 36 C-19.57752236 37.44277354 -22.15422205 38.88698306 -24.73046875 40.33203125 C-25.45745972 40.73877075 -26.18445068 41.14551025 -26.93347168 41.5645752 C-30.44211679 43.53400814 -33.92470946 45.51381727 -37.3125 47.6875 C-41.0861072 50.10458174 -45.00639789 52.20910467 -48.94921875 54.3359375 C-56.78268323 58.60873631 -64.49212412 63.10944913 -72.1875 67.625 C-75.90240426 69.80185528 -79.64286301 71.90309202 -83.4375 73.9375 C-88.73452182 76.79621019 -93.82640339 79.94474008 -98.9375 83.12109375 C-103.70913861 86.04859142 -108.60193659 88.71980307 -113.5390625 91.35546875 C-119.81671702 94.72948192 -125.8846427 98.35947135 -131.9375 102.12109375 C-136.70913861 105.04859142 -141.60193659 107.71980307 -146.5390625 110.35546875 C-151.62795771 113.09056661 -156.59344213 115.94793497 -161.5 119 C-167.22376991 122.5604019 -173.05805191 125.82195807 -179 129 C-180.66879752 129.91278167 -182.33560558 130.82921405 -184 131.75 C-184.70125 132.13671875 -185.4025 132.5234375 -186.125 132.921875 C-187.79103661 133.87984605 -189.40095032 134.93396688 -191 136 C-198.29296618 136.89562743 -202.75038805 134.56752264 -209 131 C-210.13308594 130.37222656 -211.26617187 129.74445313 -212.43359375 129.09765625 C-217.65981573 126.18028376 -222.81193044 123.2035991 -227.75 119.8125 C-231.41974086 117.30091589 -235.19803758 115.34653086 -239.1953125 113.41015625 C-246.61642976 109.67892598 -253.90244061 105.51489477 -260.75 100.8125 C-264.41974086 98.30091589 -268.19803758 96.34653086 -272.1953125 94.41015625 C-280.45953772 90.25502351 -288.37971012 85.50729144 -296.01171875 80.2890625 C-298.46709569 78.69716782 -301.00896492 77.45004674 -303.64453125 76.1875 C-310.90714499 72.52608279 -317.92410893 68.27765185 -324.875 64.0625 C-329.05483537 61.53277908 -333.29793621 59.13259548 -337.5625 56.75 C-344.65845809 52.78351974 -351.67606143 48.69480003 -358.671875 44.5546875 C-362.19653846 42.46906598 -365.73240653 40.4030686 -369.27050781 38.34033203 C-370.34520325 37.71369659 -371.41989868 37.08706116 -372.52716064 36.44143677 C-373.34319763 35.96576263 -374.15923462 35.4900885 -375 35 C-374.99631283 36.0406769 -374.99262566 37.0813538 -374.98882675 38.15356636 C-374.90005852 63.46663235 -374.83431123 88.77967817 -374.79275131 114.0928669 C-374.77211944 126.33410293 -374.74398675 138.57523618 -374.69824219 150.81640625 C-374.65839374 161.48486457 -374.63257174 172.15324846 -374.62364602 182.82177913 C-374.61842794 188.47156224 -374.60615028 194.12113241 -374.57707977 199.77084732 C-374.54994232 205.08793121 -374.54155171 210.40471432 -374.54756927 215.72186089 C-374.5464683 217.67377672 -374.53850459 219.62570255 -374.5231781 221.57755852 C-374.50327634 224.24267807 -374.50806142 226.90666203 -374.51898193 229.57180786 C-374.50733057 230.34419332 -374.4956792 231.11657877 -374.48367476 231.91236985 C-374.54105089 237.09277719 -375.76408931 239.9906329 -379 244 C-382.05064639 246.95082974 -384.22982691 247.43166411 -388.4375 247.4375 C-392.10972661 247.32978135 -393.79208688 247.11456437 -397.0625 245.3125 C-401.3689419 240.17255321 -401.29368331 235.19954309 -401.28088379 228.79006958 C-401.28979716 227.39449493 -401.28979716 227.39449493 -401.29889059 225.97072685 C-401.31624043 222.85170464 -401.31927896 219.73283617 -401.32226562 216.61376953 C-401.33152354 214.37810946 -401.34157307 212.14245255 -401.35235596 209.90679932 C-401.37858933 203.83244015 -401.39149048 197.75812517 -401.40037727 191.6837182 C-401.40623987 187.88936805 -401.41444961 184.09502996 -401.42338562 180.30068588 C-401.44759714 169.79029798 -401.4683644 159.2799172 -401.4751358 148.76950264 C-401.47557494 148.09732381 -401.47601407 147.42514499 -401.47646651 146.73259711 C-401.47690306 146.05883768 -401.47733962 145.38507825 -401.4777894 144.69090188 C-401.47867633 143.32567286 -401.47956945 141.96044385 -401.48046875 140.59521484 C-401.48091161 139.91801836 -401.48135447 139.24082187 -401.48181075 138.54310428 C-401.4897084 127.56786652 -401.52462505 116.59289421 -401.57118779 105.617759 C-401.61863308 94.34342885 -401.6430244 83.06922727 -401.64587164 71.79478157 C-401.64796919 65.46701674 -401.65981524 59.13962662 -401.69551086 52.8119545 C-401.72842895 46.86104207 -401.73280513 40.91078692 -401.71523285 34.95981598 C-401.71368985 32.77610643 -401.72240755 30.59236185 -401.74214935 28.408741 C-401.76753129 25.42634161 -401.75587212 22.44628055 -401.73498535 19.46389771 C-401.75109816 18.60056198 -401.76721097 17.73722626 -401.78381205 16.84772885 C-401.69199084 11.23892279 -400.35865353 8.36153655 -396.48197317 4.2961911 C-392.6581447 0.95172271 -388.06829546 1.92403737 -383.31274414 2.18041992 C-376.68681374 2.72338325 -372.32491565 5.0663687 -367 9 C-365.34276378 9.93805824 -363.68552587 10.87611481 -362.02734375 11.8125 C-359.23545804 13.44782419 -356.49753135 15.16628792 -353.75 16.875 C-347.94744598 20.47443192 -342.02249359 23.78491496 -336 27 C-330.76659235 29.818695 -325.67459003 32.79937035 -320.625 35.9375 C-315.77007641 38.94777896 -310.86687963 41.79042394 -305.828125 44.48046875 C-298.79132943 48.26128847 -291.91259157 52.2259132 -285.125 56.4375 C-279.39695626 59.96502222 -273.64709378 63.37397455 -267.7109375 66.54296875 C-260.40135706 70.47160492 -253.09298899 74.48445633 -246.25 79.1875 C-242.58025914 81.69908411 -238.80196242 83.65346914 -234.8046875 85.58984375 C-227.38357024 89.32107402 -220.09755939 93.48510523 -213.25 98.1875 C-204.28571841 104.34555782 -204.28571841 104.34555782 -194 107 C-191.267825 105.75276652 -188.86161607 104.48532809 -186.3125 102.9375 C-185.59916504 102.51992432 -184.88583008 102.10234863 -184.15087891 101.67211914 C-182.09164379 100.46238267 -180.04443741 99.23453576 -178 98 C-177.08347656 97.4534375 -176.16695312 96.906875 -175.22265625 96.34375 C-173.66272142 95.40934644 -172.10539967 94.47056602 -170.55078125 93.52734375 C-163.28277272 89.17544278 -155.90208482 85.00432538 -148.4375 81 C-143.18409295 78.16052962 -138.13326043 75.03019251 -133.0625 71.87890625 C-128.29086139 68.95140858 -123.39806341 66.28019693 -118.4609375 63.64453125 C-112.18328298 60.27051808 -106.1153573 56.64052865 -100.0625 52.87890625 C-95.29086139 49.95140858 -90.39806341 47.28019693 -85.4609375 44.64453125 C-80.37204229 41.90943339 -75.40655787 39.05206503 -70.5 36 C-64.77655167 32.43979813 -58.94430753 29.17334571 -53 26 C-47.76659235 23.181305 -42.67459003 20.20062965 -37.625 17.0625 C-31.85728879 13.48625016 -25.98225446 10.19959973 -20 7 C-18.33120248 6.08721833 -16.66439442 5.17078595 -15 4.25 C-14.29875 3.86328125 -13.5975 3.4765625 -12.875 3.078125 C-8.23932498 0.41261186 -5.40312861 -0.66515788 0 0 Z " fill="#FAFAFA" transform="translate(452,132)"/>
<path d="M0 0 C3.87188649 1.99532801 6.45670887 4.94009159 8 9 C8.24609566 12.13152695 8.24609566 12.13152695 8.24050903 15.89691162 C8.24221788 16.59044967 8.24392673 17.28398772 8.24568737 17.99854207 C8.2489808 20.32172441 8.23798115 22.64461772 8.22705078 24.96777344 C8.22648663 26.63336683 8.22680329 28.29896073 8.22793579 29.96455383 C8.22851017 34.4869435 8.21674204 39.00922732 8.20278788 43.53159237 C8.19029475 48.25748599 8.18911114 52.98338197 8.18673706 57.70928955 C8.18051812 66.65879471 8.1641017 75.60825107 8.14403808 84.55773473 C8.12169197 94.74626041 8.11068889 104.93478841 8.10064721 115.1233325 C8.07973584 136.08224891 8.0445518 157.04112138 8 178 C12.21737861 175.92044282 16.20759519 173.69409843 20.1875 171.1875 C26.007331 167.55720095 31.95417389 164.23618606 38 161 C39.50180361 160.16992147 41.00188323 159.33671416 42.5 158.5 C44.83964988 157.19328065 47.18417759 155.90141414 49.546875 154.63671875 C54.63565091 151.90848773 59.5963839 149.05023513 64.5 146 C70.22393367 142.43949623 76.05899754 139.18007647 82 136 C83.50180361 135.16992147 85.00188323 134.33671416 86.5 133.5 C88.83964988 132.19328065 91.18417759 130.90141414 93.546875 129.63671875 C98.63565091 126.90848773 103.5963839 124.05023513 108.5 121 C114.22393367 117.43949623 120.05899754 114.18007647 126 111 C127.50180361 110.16992147 129.00188323 109.33671416 130.5 108.5 C134.7682545 106.11771842 139.0695815 103.79926011 143.37890625 101.4921875 C145.71943754 100.15972408 147.82239846 98.7014232 150 97.125 C154.71791855 94.11915086 159.58282977 94.08298686 165 95 C168.2215705 96.77515109 169.4839615 98.11536257 171.3125 101.25 C172.4232503 105.69300121 173.19090023 109.64343049 171.078125 113.82421875 C166.68529694 119.57365548 160.25812621 122.64632593 154 126 C153.0409375 126.52722656 152.081875 127.05445313 151.09375 127.59765625 C149.25972089 128.60482673 147.42253315 129.60626963 145.58203125 130.6015625 C142.47250845 132.28569134 139.38423293 134.0061465 136.296875 135.73046875 C134.68852193 136.61943941 133.0732987 137.49604103 131.453125 138.36328125 C126.36434909 141.09151227 121.4036161 143.94976487 116.5 147 C110.77606633 150.56050377 104.94100246 153.81992353 99 157 C97.49819639 157.83007853 95.99811677 158.66328584 94.5 159.5 C92.16035012 160.80671935 89.81582241 162.09858586 87.453125 163.36328125 C82.36434909 166.09151227 77.4036161 168.94976487 72.5 172 C66.77606633 175.56050377 60.94100246 178.81992353 55 182 C53.49819639 182.83007853 51.99811677 183.66328584 50.5 184.5 C48.16035012 185.80671935 45.81582241 187.09858586 43.453125 188.36328125 C38.36434909 191.09151227 33.4036161 193.94976487 28.5 197 C22.77623009 200.5604019 16.94194809 203.82195807 11 207 C9.33120248 207.91278167 7.66439442 208.82921405 6 209.75 C5.29875 210.13671875 4.5975 210.5234375 3.875 210.921875 C2.20896339 211.87984605 0.59904968 212.93396688 -1 214 C-8.29020177 214.89528794 -12.75297647 212.57221708 -19 209 C-20.01707031 208.43023437 -21.03414062 207.86046875 -22.08203125 207.2734375 C-25.73565658 205.20631071 -29.37017065 203.10852906 -33 201 C-36.22886067 199.12447212 -39.45785773 197.24918176 -42.6875 195.375 C-43.91654053 194.66162476 -43.91654053 194.66162476 -45.17041016 193.93383789 C-50.19493698 191.02444693 -55.25225119 188.19260349 -60.36328125 185.4375 C-69.96034046 180.2053255 -79.37265955 174.62661989 -88.82568359 169.14013672 C-94.54615122 165.82599748 -100.29911516 162.57488729 -106.07055664 159.35058594 C-111.02543254 156.57242929 -115.92432381 153.70615324 -120.8125 150.8125 C-126.2079139 147.62004742 -131.63176202 144.51558968 -137.15234375 141.54296875 C-146.53583967 136.45863283 -155.79819309 131.15517188 -165 125.75 C-165.68143066 125.35006836 -166.36286133 124.95013672 -167.06494141 124.53808594 C-169.04869105 123.36752333 -171.02505829 122.18535303 -173 121 C-173.72832031 120.57009766 -174.45664063 120.14019531 -175.20703125 119.69726562 C-175.92246094 119.26607422 -176.63789063 118.83488281 -177.375 118.390625 C-178.02210938 118.00422852 -178.66921875 117.61783203 -179.3359375 117.21972656 C-181 116 -181 116 -183 113 C-183.65237324 108.62566572 -184.03401151 103.98730094 -181.94921875 99.98046875 C-179.57972613 97.10772106 -177.53801041 95.27174319 -173.85546875 94.62109375 C-166.11169816 94.08821349 -161.45797916 96.60313196 -155.17578125 100.85546875 C-152.40039795 102.72962057 -149.6401725 104.36598765 -146.6875 105.9375 C-136.39283619 111.46473628 -126.24323258 117.23747516 -116.1875 123.1875 C-110.79201196 126.37983546 -105.36824446 129.48440683 -99.84765625 132.45703125 C-89.77743008 137.91346381 -79.86760103 143.64201096 -70.01196289 149.47509766 C-65.29226526 152.26101135 -60.52577426 154.9340004 -55.69921875 157.53125 C-51.52560316 159.80227672 -47.41078161 162.1738616 -43.2902832 164.53955078 C-38.20519837 167.45760591 -33.11417417 170.36525741 -28.0234375 173.2734375 C-27.05623779 173.82604248 -26.08903809 174.37864746 -25.0925293 174.94799805 C-22.72838819 176.29872721 -20.36421097 177.64939312 -18 179 C-18.00276538 178.12939627 -18.00553076 177.25879253 -18.00837994 176.36180687 C-18.07462854 155.17960264 -18.12427513 133.99741626 -18.15543652 112.81513023 C-18.1709064 102.57153986 -18.1919983 92.32801864 -18.22631836 82.08447266 C-18.25621693 73.15635908 -18.27557412 64.22829559 -18.28226548 55.30013335 C-18.28617696 50.57258825 -18.29537207 45.84518642 -18.31719017 41.11768723 C-18.33756251 36.66736864 -18.34383227 32.21725226 -18.33932304 27.76689148 C-18.34014791 26.13426744 -18.34610914 24.50163658 -18.35761642 22.86905289 C-18.37257257 20.63758263 -18.36894268 18.40687288 -18.36076355 16.17538452 C-18.36352893 14.92727682 -18.36629431 13.67916912 -18.36914349 12.39323997 C-17.85976084 7.71089389 -16.44095264 4.30995694 -12.9375 1.125 C-8.58035626 -0.54369335 -4.59936699 -0.79477062 0 0 Z " fill="#FAFAFA" transform="translate(262,277)"/>
<path d="M0 0 C6.66068163 4.44534479 8.16064614 12.94024526 10.453125 20.14990234 C11.70969297 23.93813712 13.2979761 27.57924192 14.875 31.2421875 C18.20994355 39.10897152 21.20917858 47.07703246 24.0859375 55.12109375 C26.5330499 61.91643242 29.08094488 68.62084155 31.93359375 75.2578125 C33.78652134 79.81565689 35.37342603 84.46213106 36.98876953 89.10839844 C38.57464597 93.65846301 40.25946904 98.14334691 42.08984375 102.6015625 C43.48423513 106.08496827 44.7815247 109.60331823 46.0859375 113.12109375 C47.85894697 117.89949597 49.70034423 122.62353207 51.7109375 127.30859375 C54.12148313 132.97183075 56.00420877 138.73651817 57.83984375 144.60546875 C58.80566438 147.29246823 59.78309431 149.58372577 61.0859375 152.08984375 C63.39927194 156.57466999 64.99004756 161.21759306 66.5859375 165.99609375 C68.52700026 171.73317593 70.54568478 177.3023073 73.0859375 182.80859375 C75.41656067 188.28284816 76.3650936 193.35291576 75.1484375 199.24609375 C73.45646613 202.4060991 71.40389332 204.61836584 68.1484375 206.24609375 C66.38303969 206.41950642 64.60924591 206.51300125 62.8359375 206.55859375 C61.41861328 206.61466797 61.41861328 206.61466797 59.97265625 206.671875 C56.27038522 206.11371796 54.7540561 204.90931956 52.1484375 202.24609375 C50.77734375 199.50390625 50.77734375 199.50390625 49.7109375 196.37109375 C48.03854135 191.67270583 46.2463647 187.11180199 44.2109375 182.55859375 C41.51382064 176.36701186 39.33505474 170.08513058 37.32836914 163.63793945 C36.18580313 160.04070199 34.93753339 156.69613207 33.1875 153.34765625 C30.36554725 147.92432024 28.64742833 142.1253527 26.79296875 136.31640625 C24.77228888 130.26351 23.02489364 126.77612361 17.2109375 123.68359375 C16.2003125 123.20921875 15.1896875 122.73484375 14.1484375 122.24609375 C13.3440625 121.75109375 12.5396875 121.25609375 11.7109375 120.74609375 C9.24168213 119.30067597 6.73424227 118.21123881 4.10375977 117.09814453 C0.79250399 115.65523247 -2.43459215 114.04969817 -5.6640625 112.43359375 C-6.36329834 112.08466064 -7.06253418 111.73572754 -7.78295898 111.3762207 C-12.57385068 108.95838234 -17.17147196 106.32294277 -21.734375 103.49609375 C-25.58805817 101.22085645 -29.60856222 99.66042718 -33.8515625 98.24609375 C-34.20553101 99.05276489 -34.20553101 99.05276489 -34.56665039 99.87573242 C-48.34931629 131.17811369 -48.34931629 131.17811369 -53.8515625 134.24609375 C-58.21602068 135.03723421 -62.8606575 135.28784636 -66.8671875 133.19140625 C-69.69563277 130.8709827 -71.55833846 128.82406232 -72.23046875 125.20703125 C-72.86126837 116.32215147 -69.10293448 109.94210534 -64.99804688 102.41357422 C-62.69655694 98.06250359 -60.69446219 93.56582571 -58.64257812 89.09326172 C-57.14851798 85.87414156 -55.60119806 82.74957896 -53.8046875 79.6875 C-51.86730829 76.27383784 -50.36364266 72.86580481 -48.8515625 69.24609375 C-47.40192078 66.06542161 -45.90900184 62.90568174 -44.4140625 59.74609375 C-44.03185547 58.93011719 -43.64964844 58.11414063 -43.25585938 57.2734375 C-41.51056448 53.58135356 -39.7317309 49.955808 -37.67578125 46.42578125 C-36.22230355 43.89231048 -35.09460058 41.59688196 -34.1015625 38.87109375 C-32.20775327 33.98626834 -30.06599522 29.24174326 -27.8515625 24.49609375 C-27.51930664 23.77502441 -27.18705078 23.05395508 -26.84472656 22.31103516 C-24.82624204 18.01902653 -22.51312813 14.18452989 -19.8515625 10.24609375 C-19.4184375 9.04984375 -18.9853125 7.85359375 -18.5390625 6.62109375 C-14.99325421 -0.47052284 -7.36326872 -2.99812418 0 0 Z " fill="#FBFBFB" transform="translate(158.8515625,224.75390625)"/>
<path d="M0 0 C1.31568314 0.7213725 2.63214524 1.4413254 3.94921875 2.16015625 C5.36270844 2.93878174 6.77546799 3.71873413 8.1875 4.5 C9.18523437 5.05095337 9.18523437 5.05095337 10.203125 5.61303711 C14.13566737 7.82606947 17.7923587 10.24035844 21.43432617 12.90185547 C23.3868855 14.27135677 25.40029435 15.31069094 27.5625 16.3125 C35.91491197 20.36138263 44.09504652 24.93064699 51.75 30.1875 C55.41974086 32.69908411 59.19803758 34.65346914 63.1953125 36.58984375 C70.61642976 40.32107402 77.90244061 44.48510523 84.75 49.1875 C87.58736676 51.12912871 90.40265299 52.7584923 93.5 54.25 C99.13116753 56.96424038 104.45194262 60.15155161 109.82128906 63.34228516 C113.43716874 65.49076986 117.05378836 67.61633785 120.75 69.625 C124.37292631 71.60432075 127.86918472 73.75765467 131.375 75.9375 C135.50432719 78.50202952 139.65580983 80.94895563 143.9375 83.25 C155.85391617 89.67585814 155.85391617 89.67585814 159 95 C159.62495824 100.6246242 159.15907697 104.14856037 156 109 C152.25026715 112.3161449 149.44366923 112.92582295 144.5078125 112.80078125 C137.08522237 111.10631468 130.75848788 106.46113014 124.37060547 102.46191406 C120.93269921 100.34181286 117.41083903 98.38815535 113.875 96.4375 C107.60641378 92.93813409 101.4094537 89.32609146 95.23193359 85.66870117 C90.68240102 82.97795361 86.10323883 80.34756884 81.5 77.75 C77.64519981 75.56297295 73.9025555 73.32203551 70.25 70.8125 C66.58025914 68.30091589 62.80196242 66.34653086 58.8046875 64.41015625 C51.38357024 60.67892598 44.09755939 56.51489477 37.25 51.8125 C33.58025914 49.30091589 29.80196242 47.34653086 25.8046875 45.41015625 C17.5544066 41.26203452 9.63538043 36.52942449 2.0234375 31.30859375 C-0.62314333 29.5970019 -3.37458885 28.22507001 -6.22265625 26.8828125 C-8 26 -8 26 -10.6875 24.1875 C-13.67537716 22.6531847 -14.80181637 23.11838926 -18 24 C-20.45657092 25.11758698 -20.45657092 25.11758698 -22.9375 26.5625 C-23.89140625 27.09875 -24.8453125 27.635 -25.828125 28.1875 C-26.87484375 28.785625 -27.9215625 29.38375 -29 30 C-30.18203212 30.66712675 -31.36433228 31.33377875 -32.546875 32 C-39.86317688 36.13123814 -39.86317688 36.13123814 -47 40.5625 C-50.50546371 42.80901223 -54.20045336 44.61519805 -57.9375 46.4375 C-62.74524426 48.787083 -67.21159276 51.34242061 -71.6015625 54.40234375 C-78.60884144 59.07005888 -86.15222963 63.01900803 -93.5625 67 C-98.77088891 69.81451853 -103.77121173 72.92462815 -108.796875 76.05078125 C-113.43932367 78.87588111 -118.20720843 81.44138666 -123 84 C-128.18040019 86.79014536 -133.20530635 89.74230266 -138.1875 92.875 C-143.84076057 96.39097186 -149.6383128 99.35380923 -155.62890625 102.265625 C-159.81145312 104.41747994 -163.6990854 106.8944535 -167.59765625 109.51953125 C-172.41480868 112.48815039 -177.31643099 114.26779044 -183 113 C-186.32160898 110.9216036 -189.23225962 108.53548076 -191 105 C-191.36855445 99.47168321 -191.40652231 95.6088243 -188 91 C-184.82043277 88.71262772 -181.43251183 86.87761331 -178 85 C-176.34999713 84.00689482 -174.70407615 83.00697323 -173.0625 82 C-168.76954156 79.42288964 -164.40049701 77.01697072 -159.99609375 74.63671875 C-152.89990999 70.76018551 -145.77827891 66.84991283 -139 62.4375 C-135.49453629 60.19098777 -131.79954664 58.38480195 -128.0625 56.5625 C-123.25475574 54.212917 -118.78840724 51.65757939 -114.3984375 48.59765625 C-107.39115856 43.92994112 -99.84777037 39.98099197 -92.4375 36 C-87.22911109 33.18548147 -82.22878827 30.07537185 -77.203125 26.94921875 C-72.56067633 24.12411889 -67.79279157 21.55861334 -63 19 C-57.81959981 16.20985464 -52.79469365 13.25769734 -47.8125 10.125 C-42.06235841 6.55058766 -36.18841795 3.48546326 -30.09375 0.54296875 C-27.3003294 -0.8502145 -24.6641273 -2.37794727 -22 -4 C-13.59570848 -7.18783471 -7.26519868 -4.12297645 0 0 Z " fill="#FBFBFB" transform="translate(272,26)"/>
<path d="M0 0 C4.75333496 2.13532818 8.77239544 4.97949505 13 8 C14.73233607 8.98990632 16.48220714 9.94989937 18.25 10.875 C23.88580184 13.89122826 29.37388973 17.13753766 34.87304688 20.39355469 C38.47272377 22.52210132 42.07639293 24.62552752 45.75 26.625 C49.37292631 28.60432075 52.86918472 30.75765467 56.375 32.9375 C62.89031795 36.97730088 69.55890143 40.64926776 76.33203125 44.234375 C91.76375306 52.55831601 91.76375306 52.55831601 94.25390625 57.4765625 C95.31794973 61.07536923 95.81754165 64.3349192 95 68 C92.9216036 71.32160898 90.53548076 74.23225962 87 76 C80.54639365 76.55634537 76.58207711 75.26533269 71 72 C69.38351562 71.09121094 69.38351562 71.09121094 67.734375 70.1640625 C62.48519682 67.20725607 57.2767158 64.18659793 52.125 61.0625 C47.94516693 58.53278048 43.70208801 56.13254881 39.4375 53.75 C32.98541193 50.14424124 26.60078386 46.43598083 20.23852539 42.67431641 C13.53180555 38.71241676 6.77242903 34.84835297 0 31 C-0.6086792 30.62576904 -1.2173584 30.25153809 -1.84448242 29.8659668 C-5.65890089 27.41555892 -5.65890089 27.41555892 -10.0625 27.5625 C-11.031875 28.036875 -12.00125 28.51125 -13 29 C-14.3303125 29.61875 -14.3303125 29.61875 -15.6875 30.25 C-24.5877187 34.95200233 -33.32998729 39.88575166 -42 45 C-35.56358828 49.48164964 -28.91959597 53.31829077 -22 57 C-16.76606237 59.81757269 -11.67450155 62.79942534 -6.625 65.9375 C-0.10968205 69.97730088 6.55890143 73.64926776 13.33203125 77.234375 C28.76375306 85.55831601 28.76375306 85.55831601 31.25390625 90.4765625 C32.31794973 94.07536923 32.81754165 97.3349192 32 101 C29.9216036 104.32160898 27.53548076 107.23225962 24 109 C17.54639365 109.55634537 13.58207711 108.26533269 8 105 C6.38351562 104.09121094 6.38351562 104.09121094 4.734375 103.1640625 C-0.51480318 100.20725607 -5.7232842 97.18659793 -10.875 94.0625 C-15.05483307 91.53278048 -19.29791199 89.13254881 -23.5625 86.75 C-30.01315362 83.14504288 -36.39675157 79.43823321 -42.75708008 75.67651367 C-48.48806196 72.29017508 -54.25763827 68.97700387 -60.046875 65.69140625 C-61.967764 64.59121454 -63.86362298 63.44569757 -65.7265625 62.25 C-67.9621403 60.71521687 -67.9621403 60.71521687 -70.625 61.4375 C-77.88081809 64.79667504 -84.71070524 68.78595497 -91.5 73 C-92.59054688 73.6703125 -93.68109375 74.340625 -94.8046875 75.03125 C-96.84084938 76.28580451 -98.86802001 77.55515643 -100.8828125 78.84375 C-107.1657295 82.63856027 -112.63400983 84.60435716 -120 83 C-123.15938594 81.3054767 -125.37165429 79.25669143 -127 76 C-127.49433314 70.96752656 -127.81849917 66.51107539 -125.375 62 C-122.73181554 59.77416045 -120.09065055 58.54158357 -117 57 C-114.98806808 55.76929697 -112.9885174 54.51818712 -111 53.25 C-106.52500008 50.44056568 -102.00855827 47.93849262 -97.25 45.625 C-91.01446359 42.58717457 -85.07573143 39.18069095 -79.11962891 35.63037109 C-72.62527819 31.75985073 -66.01690482 28.13841109 -59.34375 24.5859375 C-54.3461375 21.90043883 -49.4905725 19.08406924 -44.6875 16.0625 C-38.98686001 12.50638648 -33.17982776 9.50531548 -27.12890625 6.609375 C-24.50265578 5.25854454 -22.4319115 3.86746812 -20.125 2.0625 C-14.38295966 -1.6015857 -6.49239359 -1.39979414 0 0 Z " fill="#FBFBFB" transform="translate(268,76)"/>
<path d="M0 0 C3.87877347 1.99887713 6.43071002 4.94495296 8 9 C8.25726891 11.89612389 8.25726891 11.89612389 8.26742554 15.32504272 C8.27595551 16.6260643 8.28448547 17.92708588 8.29327393 19.26753235 C8.29257492 20.70748914 8.29165186 22.14744583 8.29052734 23.58740234 C8.29651234 25.10533479 8.30331782 26.62326418 8.31088257 28.14118958 C8.32855271 32.26314122 8.33323837 36.38500982 8.33451414 40.50699568 C8.33593571 43.0827022 8.34020542 45.65838762 8.34550858 48.2340889 C8.36401213 57.22117707 8.37217877 66.20820591 8.37060547 75.1953125 C8.36940394 83.57052514 8.3905076 91.94548013 8.4220928 100.32062757 C8.44825049 107.51311148 8.45897298 114.70551121 8.45769465 121.89804232 C8.45718487 126.1929579 8.46287681 130.4876445 8.48405075 134.78251266 C8.50342474 138.82258692 8.50356362 142.86221359 8.48901749 146.9023037 C8.48692723 148.38334622 8.4916433 149.86441669 8.5037384 151.3454113 C8.51920358 153.3705475 8.50747813 155.39583648 8.49447632 157.42098999 C8.49556585 158.55328726 8.49665539 159.68558453 8.49777794 160.85219383 C7.7601656 165.51664459 5.4413334 168.60582679 2.08984375 171.84765625 C-1.98249362 174.09315069 -6.50319738 173.60046326 -11 173 C-15.19334152 170.68938324 -16.55213278 168.46118512 -18 164 C-18.25447559 160.98082829 -18.25447559 160.98082829 -18.26069641 157.55470276 C-18.26778122 156.25230652 -18.27486603 154.94991028 -18.28216553 153.60804749 C-18.27987189 152.17172206 -18.27736221 150.73539697 -18.2746582 149.29907227 C-18.27900712 147.78099314 -18.28419087 146.26291621 -18.29014587 144.74484253 C-18.30352754 140.6270737 -18.3041155 136.50939671 -18.30158257 132.39161038 C-18.30051234 128.95222325 -18.30539755 125.51285465 -18.310188 122.07347149 C-18.32128021 113.95871621 -18.32172213 105.84400723 -18.31567383 97.72924805 C-18.30963277 89.36144105 -18.32194902 80.99380215 -18.3432439 72.62602383 C-18.36086353 65.43776744 -18.3668607 58.24956453 -18.36360615 51.06128734 C-18.3617938 46.76978575 -18.36442473 42.47840409 -18.37832069 38.18692207 C-18.39090041 34.1509937 -18.38895368 30.11532729 -18.37590981 26.07940292 C-18.37354481 24.59997786 -18.37627597 23.12053436 -18.38453293 21.64113045 C-18.39500753 19.61820479 -18.38509312 17.59520445 -18.3742218 15.57228088 C-18.37438954 14.44128243 -18.37455729 13.31028399 -18.37473011 12.14501286 C-17.83345107 7.60219794 -16.33530578 4.21391435 -12.9375 1.125 C-8.58035626 -0.54369335 -4.59936699 -0.79477062 0 0 Z " fill="#F9F9F9" transform="translate(367,223)"/>
<path d="M0 0 C2.61608896 1.30804448 2.70818056 2.29492497 3.75 5 C4.09675781 5.89976562 4.44351563 6.79953125 4.80078125 7.7265625 C6.48730928 12.33017972 8.09880579 16.95926258 9.70678711 21.59082031 C11.596594 26.9875286 13.70963465 32.25159953 16.01953125 37.484375 C16.9947599 39.98655528 17.55776804 42.35611862 18 45 C11.59780782 42.49247473 5.60294882 39.94899504 -0.12109375 36.125 C-2.13564639 34.91878137 -4.0978049 34.14672679 -6.3125 33.375 C-9.6708688 32.12272689 -10.7412956 31.51584921 -13 29 C-11.71014121 24.84788314 -10.13446437 21.10234102 -8.125 17.25 C-5.71934611 12.53868272 -3.63146734 7.80983132 -1.76171875 2.86328125 C-1 1 -1 1 0 0 Z " fill="#050505" transform="translate(150,270)"/>
</svg>
